<svg id="Layer_1" data-name="Layer 1" xmlns="http://www.w3.org/2000/svg" viewBox="142.2 228.87 557.48 137.53">   <defs>     <style>       .cls-1 {         fill: none;       }        .cls-1, .cls-2, .cls-3 {         stroke-width: 0px;       }        .cls-2 {         fill: #f5975d;       }        .cls-3 {         fill: #2a7991;       }     </style>   </defs>   <rect class="cls-1" width="841.89" height="595.28"></rect>   <g>     <path class="cls-2" d="m210.84,228.89h0c-37.87-.02-68.59,30.67-68.61,68.55,0,37.83,30.65,68.51,68.48,68.55,37.86.04,68.57-30.62,68.61-68.48.04-37.86-30.62-68.57-68.48-68.61Z"></path>     <path class="cls-3" d="m459.41,314.38c5.57,0,10.15-2.29,12.97-6.29,2.82,4,7.53,6.29,13.56,6.29,8.19,0,13.76-5.04,15-11.66h-7.07c-.98,3.73-4.19,5.9-8.45,5.9-5.63,0-9.11-3.73-9.43-9.5v-.39h25.29c.13-.92.2-1.83.2-2.69-.2-9.83-6.75-15.98-16.51-15.98-5.24,0-9.56,2.29-12.31,6.29-2.82-4-7.47-6.29-13.23-6.29-10.15,0-17.03,6.88-17.03,17.1s6.88,17.23,17.03,17.23Zm25.74-28.63c4.98,0,8.38,2.82,8.97,7.79h-17.82c.52-4.78,4.32-7.79,8.84-7.79Zm-25.74.33c6.03,0,9.89,4.65,9.89,11.27s-3.87,11.01-9.89,11.01-9.76-4.59-9.76-11.2,3.8-11.07,9.76-11.07Z"></path>     <path class="cls-3" d="m528.64,297.22c0,6.94-3.28,11-8.65,11s-7.79-3.34-7.79-9.89v-17.88h-7.07v18.67c0,11.46,6.09,15.26,13.23,15.26,5.17,0,8.25-2.1,10.35-4.65l.79,4.26h6.22v-33.54h-7.07v16.77Z"></path>     <polygon class="cls-3" points="538.81 280.45 551.19 313.99 559.83 313.99 572.21 280.45 564.75 280.45 555.64 306.39 546.41 280.45 538.81 280.45"></polygon>     <path class="cls-3" d="m590.7,287.06h3.14v-6.62h-1.57c-5.5,0-8.19,2.23-9.89,5.04l-.79-5.04h-6.29v33.54h7.08v-16.83c0-5.17,2.03-10.09,8.32-10.09Z"></path>     <path class="cls-3" d="m611.07,314.38c8.32,0,13.95-5.04,15.13-11.66h-7.07c-.98,3.73-4.13,5.9-8.45,5.9-5.57,0-9.17-3.73-9.37-9.43v-.46h25.29c.13-.92.2-1.83.2-2.69-.2-9.83-6.68-15.98-16.38-15.98s-16.51,6.88-16.51,17.23,6.62,17.1,17.16,17.1Zm-.59-28.63c4.91,0,8.38,2.82,8.97,7.79h-17.88c.52-4.78,4.39-7.79,8.91-7.79Z"></path>     <path class="cls-3" d="m461.31,332.06c-5.44,0-8.65,2.16-10.74,4.78l-.79-4.39h-6.16v33.54h7.08v-16.9c0-6.81,3.34-10.94,8.97-10.94,5.31,0,7.99,3.41,7.99,9.76v18.08h7.14v-18.67c0-11.2-6.09-15.26-13.49-15.26Z"></path>     <path class="cls-3" d="m508.2,357.67v-13.43c0-7.93-5.11-12.18-14.02-12.18-8.45,0-14.08,4.06-14.8,10.61h6.94c.52-2.95,3.34-4.91,7.53-4.91,4.65,0,7.34,2.29,7.34,6.03v2.03h-8.45c-9.37,0-14.35,3.86-14.35,10.74,0,6.22,5.11,9.83,12.45,9.83,5.44,0,8.84-2.36,11.07-5.76,0,3.34,1.57,5.37,6.16,5.37h3.73v-6.16h-1.44c-1.44,0-2.16-.46-2.16-2.16Zm-7.01-5.44c-.07,5.18-3.47,8.65-9.37,8.65-3.87,0-6.22-1.97-6.22-4.78,0-3.41,2.42-5.04,6.81-5.04h8.78v1.18Z"></path>     <path class="cls-3" d="m523.73,356.16v-17.49h8.19v-6.22h-8.19v-9.37h-7.14v9.37h-5.83v6.22h5.83v18.21c0,6.09,2.75,9.11,9.17,9.11h6.55v-6.22h-4.98c-2.69,0-3.6-.98-3.6-3.6Z"></path>     <rect class="cls-3" x="536.32" y="332.45" width="7.08" height="33.54"></rect>     <path class="cls-3" d="m539.85,319.28c-2.36,0-4.13,1.77-4.13,4.13s1.77,4.13,4.13,4.13,4.13-1.77,4.13-4.13-1.77-4.13-4.13-4.13Z"></path>     <path class="cls-3" d="m564.68,332.06c-10.22,0-17.1,6.94-17.1,17.16s6.88,17.16,17.1,17.16,17.1-6.88,17.1-17.16-6.88-17.16-17.1-17.16Zm0,28.3c-5.96,0-9.83-4.65-9.83-11.14s3.87-11.14,9.83-11.14,9.89,4.65,9.89,11.14-3.93,11.14-9.89,11.14Z"></path>     <path class="cls-3" d="m602.65,332.06c-5.44,0-8.65,2.16-10.74,4.78l-.79-4.39h-6.16v33.54h7.08v-16.9c0-6.81,3.34-10.94,8.97-10.94,5.31,0,7.99,3.41,7.99,9.76v18.08h7.14v-18.67c0-11.2-6.09-15.26-13.49-15.26Z"></path>     <path class="cls-3" d="m649.55,357.67v-13.43c0-7.93-5.11-12.18-14.02-12.18-8.45,0-14.08,4.06-14.8,10.61h6.94c.52-2.95,3.34-4.91,7.53-4.91,4.65,0,7.34,2.29,7.34,6.03v2.03h-8.45c-9.37,0-14.35,3.86-14.35,10.74,0,6.22,5.11,9.83,12.45,9.83,5.44,0,8.84-2.36,11.07-5.76,0,3.34,1.57,5.37,6.16,5.37h3.73v-6.16h-1.44c-1.44,0-2.16-.46-2.16-2.16Zm-7.01-5.44c-.07,5.18-3.47,8.65-9.37,8.65-3.87,0-6.22-1.97-6.22-4.78,0-3.41,2.42-5.04,6.81-5.04h8.78v1.18Z"></path>     <rect class="cls-3" x="656.51" y="320.13" width="7.08" height="45.85"></rect>     <path class="cls-3" d="m699.46,350.72c.13-.92.2-1.83.2-2.69-.2-9.83-6.68-15.98-16.38-15.98s-16.51,6.88-16.51,17.23,6.62,17.1,17.16,17.1c8.32,0,13.95-5.04,15.13-11.66h-7.07c-.98,3.73-4.13,5.9-8.45,5.9-5.57,0-9.17-3.73-9.37-9.43v-.46h25.29Zm-16.12-12.97c4.91,0,8.38,2.82,8.97,7.79h-17.88c.52-4.78,4.39-7.79,8.91-7.79Z"></path>     <path class="cls-3" d="m348.67,228.9h0c-38.28-.02-69.33,31-69.35,69.28v67.8h138.7v-67.8h0c-.02-38.28-31.07-69.3-69.35-69.28Z"></path>     <path class="cls-3" d="m445.42,252.62h3.47v-13.48h5.15v-2.72h-5.25v-2.07c0-.93.25-1.6.76-2.01s1.2-.62,2.09-.62c.39,0,.73.04,1.04.11.3.08.57.19.81.34l.65-2.49c-.28-.24-.7-.43-1.25-.57-.55-.14-1.16-.21-1.83-.21-.86,0-1.65.11-2.35.34-.7.23-1.3.56-1.8,1-.5.44-.87.99-1.12,1.64-.25.65-.37,1.38-.37,2.2v2.33h-3.04v2.72h3.04v13.48Z"></path>     <path class="cls-3" d="m459.66,252.36c.9.39,1.87.58,2.93.58,1.3,0,2.42-.24,3.37-.71.95-.48,1.71-1.22,2.27-2.24l.16,2.62h3.05v-16.2h-3.47v8.78c0,.84-.11,1.58-.34,2.2s-.55,1.14-.96,1.54c-.41.4-.87.69-1.38.87-.51.18-1.03.28-1.57.28-1.12,0-2-.28-2.62-.83-.63-.55-.94-1.56-.94-3.03v-9.82h-3.47v10.69c0,1.38.27,2.51.81,3.37s1.26,1.49,2.16,1.88Z"></path>     <path class="cls-3" d="m479.99,244c0-1.23.22-2.21.67-2.95.44-.73,1-1.27,1.67-1.6s1.36-.5,2.07-.5c.99,0,1.82.31,2.48.92.66.62.99,1.72.99,3.32v9.43h3.47v-10.5c0-1.36-.27-2.48-.81-3.37-.54-.89-1.27-1.55-2.19-1.99-.92-.44-1.95-.66-3.09-.66-.89,0-1.72.14-2.51.42-.79.28-1.47.73-2.04,1.34-.37.4-.68.87-.93,1.39l-.15-2.84h-3.08v16.2h3.47v-8.62Z"></path>     <path class="cls-3" d="m498.44,251.94c1.09.67,2.3,1,3.64,1,.95,0,1.84-.19,2.67-.57.83-.38,1.53-.92,2.09-1.62.29-.36.52-.75.7-1.18l.18,3.04h3.08v-23.49h-3.47v10.02c-.36-.75-.86-1.39-1.52-1.92-.95-.76-2.12-1.13-3.5-1.13s-2.57.33-3.69.99c-1.12.66-2.02,1.61-2.69,2.87-.67,1.25-1,2.79-1,4.6s.31,3.25.94,4.5c.63,1.25,1.48,2.21,2.58,2.88Zm1.15-11.53c.8-.99,1.92-1.49,3.37-1.49.86,0,1.62.22,2.28.65.66.43,1.17,1.05,1.54,1.86.37.81.55,1.78.55,2.9,0,1.21-.18,2.25-.55,3.11-.37.86-.89,1.53-1.56,2.01-.67.48-1.47.71-2.4.71-1.4,0-2.5-.5-3.27-1.51s-1.17-2.38-1.17-4.13.4-3.12,1.2-4.11Z"></path>     <path class="cls-3" d="m518.32,251.94c1.23.67,2.66,1,4.28,1,1.08,0,2.07-.15,2.98-.45s1.69-.74,2.35-1.31c.66-.57,1.18-1.25,1.57-2.02l-2.75-1.3c-.39.73-.92,1.31-1.59,1.72-.67.41-1.54.62-2.62.62-.97,0-1.81-.22-2.53-.65-.71-.43-1.26-1.07-1.65-1.91-.28-.6-.45-1.29-.53-2.07h11.87c.04-.26.08-.56.1-.91.02-.35.03-.71.03-1.1,0-1.43-.29-2.7-.88-3.82-.58-1.12-1.42-2.01-2.53-2.66-1.1-.65-2.44-.97-4.02-.97s-2.91.33-4.11,1c-1.21.67-2.15,1.64-2.83,2.9s-1.02,2.77-1.02,4.52.34,3.26,1.02,4.52,1.64,2.23,2.87,2.9Zm0-10.51c.37-.85.9-1.5,1.59-1.93.69-.43,1.5-.65,2.43-.65,1.27,0,2.28.39,3.01,1.18.64.69.99,1.66,1.07,2.87h-8.52c.09-.54.23-1.03.42-1.47Z"></path>     <path class="cls-3" d="m536.45,251.94c1.09.67,2.31,1,3.65,1,.95,0,1.84-.19,2.67-.57.83-.38,1.53-.92,2.09-1.62.29-.36.52-.75.7-1.17l.18,3.04h3.08v-23.49h-3.47v10.02c-.36-.75-.86-1.39-1.52-1.92-.95-.76-2.12-1.13-3.5-1.13s-2.57.33-3.69.99c-1.12.66-2.02,1.61-2.69,2.87-.67,1.25-1,2.79-1,4.6s.31,3.25.94,4.5c.63,1.25,1.49,2.21,2.58,2.88Zm1.15-11.53c.8-.99,1.92-1.49,3.37-1.49.86,0,1.62.22,2.28.65s1.17,1.05,1.54,1.86.55,1.78.55,2.9c0,1.21-.18,2.25-.55,3.11-.37.86-.89,1.53-1.55,2.01-.67.48-1.47.71-2.4.71-1.4,0-2.5-.5-3.27-1.51-.78-1-1.17-2.38-1.17-4.13s.4-3.12,1.2-4.11Z"></path>     <path class="cls-3" d="m567.3,249.45c.23.5.5.98.86,1.41.54.66,1.2,1.17,1.99,1.54.79.37,1.66.55,2.61.55,1.34,0,2.55-.33,3.65-1,1.09-.67,1.95-1.63,2.59-2.88.64-1.25.96-2.75.96-4.5s-.31-3.32-.94-4.57c-.63-1.25-1.48-2.21-2.58-2.88-1.09-.67-2.28-1-3.58-1-1.4,0-2.6.36-3.6,1.09-.73.53-1.3,1.18-1.72,1.92v-9.98h-3.47v23.49h3.05l.18-3.17Zm2.38-9.84c.67-.46,1.46-.7,2.37-.7,1.4,0,2.49.5,3.27,1.49.78.99,1.17,2.37,1.17,4.11s-.39,3.13-1.18,4.13c-.79,1-1.89,1.51-3.29,1.51-.89,0-1.67-.23-2.35-.68s-1.2-1.1-1.57-1.93c-.37-.83-.55-1.82-.55-2.96s.19-2.17.57-3.01c.38-.84.9-1.5,1.57-1.96Z"></path>     <path class="cls-3" d="m585.99,256.33c-.46.31-.99.47-1.57.47-.54,0-1.04-.09-1.51-.26-.46-.17-.9-.43-1.31-.78l-.84,2.69c.5.35,1.07.62,1.73.83.66.21,1.38.31,2.15.31.95,0,1.78-.16,2.5-.49s1.34-.85,1.9-1.59c.55-.73,1.06-1.73,1.54-2.98l7.1-18.11h-3.6l-3.4,9.88-1.07,3.34-.94-3.05-3.6-10.17h-3.89l5.05,12.28,1.72,4.02-.71,1.75c-.37.93-.78,1.55-1.25,1.86Z"></path>   </g> </svg>